<svg width="480" height="300" viewBox="0 0 480 300" fill="none" xmlns="http://www.w3.org/2000/svg">
  <rect width="480" height="300" rx="24" fill="#060606"/>
  <rect width="480" height="300" rx="24" fill="url(#bg)"/>
  <g opacity=".45">
    <path d="M250 53C314 26 392 37 454 86" stroke="#F5C542" stroke-width="1.4"/>
    <path d="M224 82C302 50 388 61 468 130" stroke="#F5C542" stroke-width="1" opacity=".45"/>
    <path d="M215 110C305 84 394 99 474 174" stroke="#F5C542" stroke-width=".8" opacity=".25"/>
  </g>
  <rect x="28" y="26" width="424" height="248" rx="20" fill="black" fill-opacity=".50" stroke="white" stroke-opacity=".10"/>
  <rect x="47" y="46" width="38" height="9" rx="4.5" fill="#F5C542"/>
  <rect x="334" y="47" width="31" height="7" rx="3.5" fill="white" fill-opacity=".28"/>
  <rect x="376" y="47" width="31" height="7" rx="3.5" fill="white" fill-opacity=".18"/>
  <rect x="418" y="47" width="18" height="7" rx="3.5" fill="#F5C542"/>
  <text x="47" y="109" fill="white" font-family="Inter, Arial, sans-serif" font-size="25" font-weight="800">Designing</text>
  <text x="47" y="142" fill="white" font-family="Inter, Arial, sans-serif" font-size="25" font-weight="800">Digital Experiences</text>
  <rect x="47" y="164" width="112" height="24" rx="12" fill="#F5C542"/>
  <rect x="175" y="164" width="90" height="24" rx="12" fill="white" fill-opacity=".08" stroke="white" stroke-opacity=".12"/>
  <rect x="47" y="217" width="78" height="10" rx="5" fill="white" fill-opacity=".22"/>
  <rect x="47" y="237" width="139" height="8" rx="4" fill="white" fill-opacity=".12"/>
  <rect x="265" y="126" width="62" height="84" rx="16" fill="white" fill-opacity=".08" stroke="white" stroke-opacity=".10"/>
  <rect x="342" y="98" width="72" height="112" rx="18" fill="#F5C542" fill-opacity=".09" stroke="#F5C542" stroke-opacity=".24"/>
  <circle cx="378" cy="135" r="24" fill="url(#orb)"/>
  <rect x="360" y="177" width="36" height="7" rx="3.5" fill="#F5C542"/>
  <defs>
    <radialGradient id="bg" cx="0" cy="0" r="1" gradientUnits="userSpaceOnUse" gradientTransform="translate(375 112) rotate(137) scale(310 393)">
      <stop stop-color="#4A390B"/>
      <stop offset=".46" stop-color="#12100A"/>
      <stop offset="1" stop-color="#030303"/>
    </radialGradient>
    <radialGradient id="orb" cx="0" cy="0" r="1" gradientUnits="userSpaceOnUse" gradientTransform="translate(370 126) rotate(56) scale(54)">
      <stop stop-color="#EDEDED"/>
      <stop offset=".45" stop-color="#777"/>
      <stop offset="1" stop-color="#0B0B0B"/>
    </radialGradient>
  </defs>
</svg>
